<svg width="199" height="71" viewBox="0 0 199 71" fill="none" xmlns="http://www.w3.org/2000/svg">
<g id="Brno">
<path id="OV" d="M174.494 70.9091C169.767 70.9091 165.619 69.7841 162.051 67.5341C158.506 65.2841 155.733 62.1363 153.733 58.0909C151.756 54.0454 150.767 49.3182 150.767 43.9091C150.767 38.4545 151.756 33.6932 153.733 29.625C155.733 25.5568 158.506 22.3977 162.051 20.1477C165.619 17.8977 169.767 16.7727 174.494 16.7727C179.222 16.7727 183.358 17.8977 186.903 20.1477C190.472 22.3977 193.244 25.5568 195.222 29.625C197.222 33.6932 198.222 38.4545 198.222 43.9091C198.222 49.3182 197.222 54.0454 195.222 58.0909C193.244 62.1363 190.472 65.2841 186.903 67.5341C183.358 69.7841 179.222 70.9091 174.494 70.9091ZM174.494 63.6818C178.085 63.6818 181.04 62.7613 183.358 60.9204C185.676 59.0795 187.392 56.6591 188.506 53.6591C189.619 50.6591 190.176 47.4091 190.176 43.9091C190.176 40.4091 189.619 37.1477 188.506 34.125C187.392 31.1023 185.676 28.6591 183.358 26.7954C181.04 24.9318 178.085 24 174.494 24C170.903 24 167.949 24.9318 165.631 26.7954C163.312 28.6591 161.597 31.1023 160.483 34.125C159.369 37.1477 158.812 40.4091 158.812 43.9091C158.812 47.4091 159.369 50.6591 160.483 53.6591C161.597 56.6591 163.312 59.0795 165.631 60.9204C167.949 62.7613 170.903 63.6818 174.494 63.6818Z" fill="black"/>
<path id="NV" d="M105.111 38.3182V69.8182H97.0653V17.4545H104.838V25.6363H105.52C106.747 22.9773 108.611 20.8409 111.111 19.2273C113.611 17.5909 116.838 16.7727 120.793 16.7727C124.338 16.7727 127.44 17.5 130.099 18.9545C132.758 20.3863 134.827 22.5682 136.304 25.5C137.781 28.4091 138.52 32.0909 138.52 36.5454V69.8182H130.474V37.0909C130.474 32.9773 129.406 29.7727 127.27 27.4772C125.133 25.1591 122.202 24 118.474 24C115.906 24 113.611 24.5568 111.588 25.6704C109.588 26.7841 108.008 28.4091 106.849 30.5454C105.69 32.6818 105.111 35.2727 105.111 38.3182Z" fill="black"/>
<path id="RV" d="M61.3466 69.8182V17.4545H69.1193V25.3636H69.6647C70.6193 22.7727 72.3466 20.6704 74.8466 19.0568C77.3466 17.4432 80.1647 16.6364 83.3011 16.6364C83.892 16.6364 84.6306 16.6477 85.517 16.6704C86.4034 16.6932 87.0738 16.7273 87.5284 16.7727V24.9545C87.2556 24.8864 86.6306 24.7841 85.6534 24.6477C84.6988 24.4886 83.6875 24.4091 82.6193 24.4091C80.0738 24.4091 77.8011 24.9432 75.8011 26.0114C73.8238 27.0568 72.2556 28.5114 71.0966 30.375C69.9602 32.2159 69.392 34.3182 69.392 36.6818V69.8182H61.3466Z" fill="black"/>
<path id="BV" d="M0 69.8182V0H24.4091C29.2727 0 33.2841 0.84091 36.4432 2.52273C39.6023 4.18182 41.9545 6.42046 43.5 9.23864C45.0455 12.0341 45.8182 15.1364 45.8182 18.5455C45.8182 21.5455 45.2841 24.0227 44.2159 25.9773C43.1705 27.9318 41.7841 29.4773 40.0568 30.6136C38.3523 31.75 36.5 32.5909 34.5 33.1364V33.8182C36.6364 33.9545 38.7841 34.7045 40.9432 36.0682C43.1023 37.4318 44.9091 39.3864 46.3636 41.9318C47.8182 44.4773 48.5455 47.5909 48.5455 51.2727C48.5455 54.7727 47.75 57.9205 46.1591 60.7159C44.5682 63.5114 42.0568 65.7273 38.625 67.3636C35.1932 69 30.7273 69.8182 25.2273 69.8182H0ZM8.45455 62.3182H25.2273C30.75 62.3182 34.6705 61.25 36.9886 59.1136C39.3295 56.9545 40.5 54.3409 40.5 51.2727C40.5 48.9091 39.8977 46.7273 38.6932 44.7273C37.4886 42.7045 35.7727 41.0909 33.5455 39.8864C31.3182 38.6591 28.6818 38.0455 25.6364 38.0455H8.45455V62.3182ZM8.45455 30.6818H24.1364C26.6818 30.6818 28.9773 30.1818 31.0227 29.1818C33.0909 28.1818 34.7273 26.7727 35.9318 24.9545C37.1591 23.1364 37.7727 21 37.7727 18.5455C37.7727 15.4773 36.7045 12.875 34.5682 10.7386C32.4318 8.57955 29.0455 7.5 24.4091 7.5H8.45455V30.6818Z" fill="black"/>
</g>
</svg>
