<svg width="684" height="296" viewBox="0 0 684 296" fill="none" xmlns="http://www.w3.org/2000/svg">
<path id="Brno_text" d="M103.467 48.1398C103.467 65.3202 102.608 89.2037 96.1523 134.53C91.8085 165.029 80.2473 209.922 74.2927 234.873C64.8984 274.237 47.5524 289.76 39.5023 293.905C37.6654 294.851 35.3959 294.992 33.0011 293.71C27.2124 290.611 18.9313 275.586 8.09592 255.88C3.28448 247.13 1.55563 240.04 1.09358 216.957C0.631524 193.874 1.92006 154.789 4.08714 128.211C6.25422 101.633 9.2608 88.7481 11.6687 76.3118C16.3038 52.3717 18.8532 38.1829 21.6646 33.8553C27.4678 24.9221 49.9212 12.6595 76.8698 5.20169C107.592 -3.30035 132.075 3.44457 136.839 5.17566C150.637 10.1899 157.247 36.8163 159.427 46.7927C163.226 64.1739 150.401 98.2235 143.399 123.786C139.783 136.984 122.209 144.845 116.665 148.346C101.281 158.061 149.008 156.155 151.175 158.967C155.827 165.001 156.388 178.217 158.991 194.929C163.033 220.873 151.65 245.481 135.004 264.34C118.437 283.109 93.2108 277.213 80.9307 280.454C72.9551 282.558 64.8891 279.386 60.7566 278.95C52.7949 278.11 84.3082 280.675 96.6924 279.393C113.355 277.668 122.522 272.892 132.713 270.711C148.211 267.396 168.492 250.323 175.247 245.995C186.711 238.651 197.569 215.259 207.122 201.332C214.49 190.593 222.741 173.609 224.511 165.937C226.212 158.563 226.672 182.603 228.832 187.158C229.699 188.986 231.852 188.707 233.811 188.278C242.746 186.319 252.651 180.481 261.579 175.698C275.934 168.008 265.718 214.27 268.536 221.22C272.943 232.089 281.753 248.526 285.886 258.522C286.819 260.779 288.261 262.427 291.287 263.097C298.858 264.774 306.053 261.178 310.596 256.856C316.263 251.465 326.384 229.667 339.393 201.052C348.973 179.979 353.339 170.954 360.061 167.674C363.993 165.756 368.098 164.85 371.131 165.058C380.397 165.694 376.793 201.098 374.417 220.979C372.871 233.922 369.426 246.782 368.983 258.099C368.885 260.616 375.426 230.149 385.402 194.805C389.884 178.927 390.667 173.544 392.613 169.217C394.637 164.714 399.322 161.388 405.381 159.435C416.597 155.821 425.353 158.759 430.553 161.355C434.439 163.296 438.369 174.729 442.71 196.992C452.076 245.033 440.569 260.657 445.749 270.028C450.706 278.996 468.734 269.846 477.838 264.659C492.048 256.564 501.663 233.559 519.254 207.007C525.745 197.208 533.786 185.323 539.695 175.275C540.403 174.071 532.172 197.623 523.061 231.418C519.21 245.702 519.963 254.904 520.822 259.765C521.681 264.627 523.399 265.056 526.217 265.277C529.035 265.499 532.901 265.499 535.536 259.915C553.786 221.252 539.07 186.56 537.54 183.521C536.47 181.393 554.116 184.79 587.156 184.594C608.169 183.111 637.805 178.815 655.22 175.314C672.635 171.813 676.93 169.236 682.657 163.978" stroke="black" stroke-width="2" stroke-linecap="round"/>
</svg>
